<?xml version="1.0" encoding="UTF-8"?>
<svg width="24px" height="20px" viewBox="0 0 24 20" version="1.1" xmlns="http://www.w3.org/2000/svg" xmlns:xlink="http://www.w3.org/1999/xlink">
    <!-- Generator: Sketch 64 (93537) - https://sketch.com -->
    <title>Combined Shape</title>
    <desc>Created with Sketch.</desc>
    <g id="Page-1" stroke="none" stroke-width="1" fill="none" fill-rule="evenodd">
        <g id="Artboard-Copy-28" transform="translate(-1596.000000, -554.000000)" fill="#FFFFFF">
            <path d="M1601.28937,554 C1602.06724,554.126966 1602.45617,554.515768 1602.45617,555.166405 C1602.45617,555.817042 1602.54143,556.329187 1602.71195,556.702838 L1620,556.702838 L1617.57176,566.954746 L1604.86008,566.954746 L1604.86008,568.417619 L1616.50126,568.417619 C1616.97444,569.019935 1617.11581,569.623166 1616.92537,570.227313 C1617.56397,570.560263 1618,571.229211 1618,572 C1618,573.104569 1617.10457,574 1616,574 C1614.89543,574 1614,573.104569 1614,572 C1614,571.635683 1614.09741,571.294117 1614.26761,570.999928 L1605.73239,570.999928 C1605.90259,571.294117 1606,571.635683 1606,572 C1606,573.104569 1605.10457,574 1604,574 C1602.89543,574 1602,573.104569 1602,572 C1602,571.264727 1602.39677,570.622125 1602.98789,570.274625 L1599.93039,556.702838 L1596.99528,556.702838 C1595.66824,555.702753 1595.66824,554.801807 1596.99528,554 L1601.28937,554 Z" id="Combined-Shape"></path>
        </g>
    </g>
</svg>